<?xml version="1.0" encoding="UTF-8" standalone="no"?>
<!-- Created with Inkscape (http://www.inkscape.org/) -->

<svg
   xmlns:dc="http://purl.org/dc/elements/1.1/"
   xmlns:cc="http://creativecommons.org/ns#"
   xmlns:rdf="http://www.w3.org/1999/02/22-rdf-syntax-ns#"
   xmlns:svg="http://www.w3.org/2000/svg"
   xmlns="http://www.w3.org/2000/svg"
   xmlns:sodipodi="http://sodipodi.sourceforge.net/DTD/sodipodi-0.dtd"
   xmlns:inkscape="http://www.inkscape.org/namespaces/inkscape"
   width="100mm"
   height="100mm"
   viewBox="0 0 100 100"
   version="1.1"
   id="svg8"
   inkscape:version="0.92.4 (5da689c313, 2019-01-14)"
   sodipodi:docname="sepia.svg">
  <defs
     id="defs2">
    <clipPath
       clipPathUnits="userSpaceOnUse"
       id="clipPath3863-3">
      <g
         style="stroke:#000000;stroke-width:1;stroke-miterlimit:4;stroke-dasharray:none;stroke-opacity:1"
         id="use3865-6"
         inkscape:label="Clip">
        <path
           inkscape:connector-curvature="0"
           id="path39"
           d="m 66.346273,93.818706 c 0,0 0,0 0,0 z"
           style="fill:none;stroke:#000000;stroke-width:1;stroke-linecap:butt;stroke-linejoin:miter;stroke-miterlimit:4;stroke-dasharray:none;stroke-opacity:1" />
      </g>
    </clipPath>
  </defs>
  <sodipodi:namedview
     id="base"
     pagecolor="#ffffff"
     bordercolor="#666666"
     borderopacity="1.0"
     inkscape:pageopacity="0.0"
     inkscape:pageshadow="2"
     inkscape:zoom="0.49983611"
     inkscape:cx="-434.02208"
     inkscape:cy="609.1793"
     inkscape:document-units="mm"
     inkscape:current-layer="layer1"
     showgrid="true"
     inkscape:window-width="1920"
     inkscape:window-height="1019"
     inkscape:window-x="0"
     inkscape:window-y="27"
     inkscape:window-maximized="1"
     inkscape:snap-smooth-nodes="false"
     inkscape:snap-intersection-paths="false"
     inkscape:object-nodes="false"
     showguides="true"
     inkscape:guide-bbox="true"
     inkscape:snap-grids="false"
     inkscape:snap-others="false">
    <inkscape:grid
       type="xygrid"
       id="grid1019"
       spacingy="0.99999999"
       snapvisiblegridlinesonly="true"
       dotted="false" />
  </sodipodi:namedview>
  <metadata
     id="metadata5">
    <rdf:RDF>
      <cc:Work
         rdf:about="">
        <dc:format>image/svg+xml</dc:format>
        <dc:type
           rdf:resource="http://purl.org/dc/dcmitype/StillImage" />
        <dc:title />
      </cc:Work>
    </rdf:RDF>
  </metadata>
  <g
     inkscape:groupmode="layer"
     id="layer4"
     inkscape:label="sepia"
     transform="translate(0,-197)"
     style="display:inline">
    <g
       inkscape:label="sepia_body"
       inkscape:groupmode="layer"
       id="layer1"
       style="display:none;opacity:1"
       sodipodi:insensitive="true">
      <path
         clip-path="none"
         sodipodi:nodetypes="ccccssscccscsscsccsssccsscsccssscssscsccsscscssscssscsscsscscccsccsssccsssc"
         inkscape:connector-curvature="0"
         id="path1583"
         d="m 35.707387,232.93474 c 1.023141,1.70802 3.160623,3.99653 5.248667,3.79607 0,0 -2.204973,-2.73951 -0.50113,-6.24742 m 0,0 c 1.703844,-3.50791 0.935444,-3.4745 4.409948,-5.61266 3.474504,-2.13816 5.08457,-1.42329 8.859752,-2.85987 3.775182,-1.43657 5.499256,-2.97976 7.670821,-4.31611 2.171565,-1.33635 -0.0057,-3.86578 -1.290035,-3.64863 -2.444306,0.50821 -2.740209,0.7718 -2.740209,0.7718 0,0 0.584411,-2.07132 3.741372,-2.4722 0,0 1.770784,-0.4004 3.441134,0.41807 1.67035,0.81847 2.56559,1.8905 0.04337,5.63208 -2.522231,3.74158 -7.977363,5.36181 -9.06309,5.84621 -1.085727,0.48441 -5.388779,1.66049 -6.775169,3.44776 -1.38639,1.78728 -2.321786,3.87521 -2.288379,4.99435 0.03341,1.11913 1.00221,2.62245 2.021123,2.45541 1.018913,-0.16703 1.787273,-0.4677 1.870791,-2.10464 0.08352,-1.63694 1.319576,-0.81847 1.319576,-0.81847 0,0 0.618029,0.50111 2.10464,0.451 1.486611,-0.0501 3.724879,-1.06903 5.345118,-2.3719 1.620239,-1.30287 5.662484,-5.07786 6.213699,-5.64578 0.551216,-0.56792 5.812813,-5.56226 6.029963,-6.02996 h 1.10243 c 7.43305,0 10.69023,-0.18374 12.86169,-0.41759 2.17145,-0.23385 8.76933,-1.60354 9.73814,-1.48661 0.9688,0.11692 0.9855,0 1.52001,0.35077 0.53452,0.35078 -1.9376,2.90641 -3.42421,5.2449 -1.48661,2.33849 -2.90641,5.51215 -4.40973,9.32055 -1.50331,3.80839 -1.07636,4.27891 -1.59605,5.10569 -0.5197,0.82678 -1.5827,0.82678 -3.14177,1.13388 -1.55907,0.30709 -8.792,1.36052 -10.72961,2.29591 -1.93761,0.9354 -4.24269,1.55343 -6.531066,3.19037 -2.288378,1.63694 -5.144676,4.42643 -5.144676,4.42643 -1.216956,-0.42836 -0.626399,-0.86537 -1.630347,-0.4756 -1.003948,0.38976 -2.492153,1.32285 -2.102385,3.04727 0.389768,1.72443 1.500016,2.95279 4.252015,2.55121 2.751999,-0.40158 5.208719,-1.07481 7.948909,-3.20082 2.74018,-2.12601 9.49616,-7.37016 15.40174,-7.13394 5.90558,0.23623 4.25202,10.06311 -3.35437,11.14973 0,0 4.48957,-3.7831 2.7524,-5.31982 -1.73716,-1.53673 -3.90861,-1.16925 -7.78382,1.67035 -3.87521,2.83959 -9.75484,6.34732 -12.393995,7.41635 -2.639152,1.06902 -6.380735,1.40309 -8.518782,-0.73496 0,0 1.403093,2.73938 2.472117,3.40752 1.069024,0.66814 3.741583,1.9376 4.476536,3.00662 0,0 4.242684,4.47654 2.405303,10.0221 -1.837384,5.54556 -9.186921,3.77499 -10.690235,3.30729 -1.503315,-0.4677 -4.87742,-1.67035 -6.581177,0.36748 -1.703756,2.03782 -0.601326,3.3407 -0.601326,3.3407 0,0 -4.466579,-3.80621 -0.450787,-7.70389 4.015792,-3.89768 11.078862,2.81105 12.259978,-1.1575 1.181115,-3.96854 -4.29926,-7.15756 -5.480376,-7.77174 -1.181115,-0.61418 -5.480375,-5.10241 -5.503997,-8.14969 0,0 -5.23454,6.77645 -8.040727,8.64724 -2.806187,1.87079 -10.556607,6.61459 -11.091119,9.35396 -0.534512,2.73937 2.30508,3.90861 4.443127,1.70375 0,0 -3.104539,5.87089 -6.547768,2.20486 -6.400722,-6.81488 8.147845,-13.67009 12.059923,-17.13778 3.728824,-3.30526 7.750421,-10.22254 6.614583,-12.4274 0,0 -5.564093,-2.73845 -13.123231,1.89153 -7.559138,4.62997 -9.685146,8.31505 -13.322981,10.72452 -3.637835,2.40948 -7.559138,3.02366 -10.204836,-0.0945 -2.645699,-3.11814 1.84254,-4.53548 1.84254,-4.53548 0,0 -0.472446,6.94496 6.04731,2.6457 6.519757,-4.29926 8.504031,-8.88199 13.889917,-12.33084 5.385885,-3.44886 6.944958,-2.78744 6.944958,-2.78744 0,0 -5.196908,0.37796 -6.330778,-8.64576 -1.133871,-9.02372 -4.771706,-7.03945 -6.330779,-0.75591 -1.559072,6.28353 -5.244152,8.22056 -7.748116,7.79536 -2.503965,-0.4252 -6.674989,-3.76608 -6.739107,-8.28469 v 1e-5 c 0.03341,0.16705 3.34087,5.64607 7.182868,3.87541 3.841999,-1.77066 1.670434,-14.06506 6.681737,-15.4014 5.011304,-1.33635 8.352174,1.06908 9.48807,5.84652 0.567948,2.38872 0.476747,3.51625 1.499888,5.22427"
         style="fill:none;stroke:#000000;stroke-width:0.5;stroke-linecap:round;stroke-linejoin:round;stroke-miterlimit:4;stroke-dasharray:none;stroke-opacity:1;image-rendering:auto" />
    </g>
    <g
       style="display:inline"
       inkscape:label="sepia_body_edge_filled"
       id="g1023"
       inkscape:groupmode="layer"
       sodipodi:insensitive="true">
      <path
         d="m 60.574219,212.35352 c -0.95566,0.0794 -1.813256,0.63785 -2.460938,1.15039 -0.647682,0.51253 -1.089843,1.00976 -1.089843,1.00976 a 0.45762862,0.45762862 0 0 0 0.511718,0.73047 c 0,0 0.405981,-0.16638 2.826172,-0.66992 0.802542,-0.15777 1.240857,0.14924 1.423828,0.66016 0.182972,0.51091 0.05981,1.32321 -0.722656,2.14648 -1.693582,1.78191 -3.45807,2.58385 -7.507812,4.20508 -1.839144,0.69883 -3.137409,0.87268 -4.464844,1.14453 -1.329542,0.27228 -2.681331,0.65245 -4.464844,1.75 -0.636266,0.39155 -1.026958,0.67426 -1.435547,0.9668 0.02308,-0.0565 0.03185,-0.0781 0.05664,-0.13868 0.88466,-2.15961 0.915443,-3.98859 0.296875,-5.35742 -0.618568,-1.36883 -1.886817,-2.22527 -3.390625,-2.45312 -3.027713,-0.45874 -4.742188,2.08789 -4.742188,2.08789 a 0.45762862,0.45762862 0 0 0 0.453125,0.70508 c 0.838136,-0.1347 1.92508,-0.0348 3.048828,0.64257 0.164815,0.0993 0.26001,0.25461 0.294922,0.57813 0.03491,0.32352 -0.02416,0.78532 -0.183593,1.31055 -0.318878,1.05045 -1.024568,2.35224 -1.9375,3.51562 -1.057874,1.34809 -1.438732,2.89219 -1.628907,4.23242 -0.292676,-0.9507 -0.561282,-1.94111 -0.804687,-2.96484 -0.587303,-2.47012 -1.762885,-4.386 -3.488282,-5.49609 -1.725396,-1.1101 -3.966308,-1.37982 -6.5625,-0.6875 -1.429569,0.38121 -2.334724,1.55184 -2.923828,2.98828 -0.589103,1.43643 -0.90651,3.18029 -1.189453,4.91796 -0.282943,1.73768 -0.529287,3.4712 -0.929687,4.84376 -0.4004,1.37255 -0.950098,2.32618 -1.712891,2.67773 -0.856379,0.39468 -1.646816,0.3843 -2.410156,0.14453 -0.76334,-0.23977 -1.490038,-0.72541 -2.113281,-1.28125 -0.623244,-0.55584 -1.141533,-1.17792 -1.501954,-1.66797 -0.18021,-0.24502 -0.321624,-0.45782 -0.416015,-0.60937 -0.0472,-0.0758 -0.08197,-0.13676 -0.103516,-0.17578 -0.0086,-0.0155 -0.01443,-0.0231 -0.01758,-0.0293 a 0.45762862,0.45762862 0 0 0 -0.884765,0.16601 c 0.03403,2.39843 1.154576,4.46764 2.578124,5.98438 1.423549,1.51674 3.135445,2.50545 4.541016,2.74414 2.803098,0.47598 6.673214,-1.71095 8.267578,-8.13672 0.381104,-1.53596 0.891863,-2.79973 1.433594,-3.66992 0.541731,-0.87019 1.10885,-1.29898 1.503906,-1.34766 0.197528,-0.0243 0.373486,0.0161 0.591797,0.17383 0.218311,0.15775 0.467003,0.44624 0.707031,0.89649 0.480058,0.90049 0.919785,2.42656 1.199219,4.65039 0.458234,3.64678 1.576122,5.84729 2.802735,7.16211 0.597212,0.64015 1.215554,1.05916 1.783203,1.33984 -1.134047,0.34829 -2.603563,0.95942 -4.994141,2.49023 -2.748964,1.7603 -4.625663,3.80631 -6.607422,5.91797 -1.981759,2.11166 -4.0718,4.29382 -7.287109,6.41406 -1.584794,1.04505 -2.698838,1.36451 -3.419922,1.32618 -0.721084,-0.0383 -1.107638,-0.37622 -1.402344,-0.88282 -0.589412,-1.01319 -0.517578,-2.67382 -0.517578,-2.67382 a 0.45762862,0.45762862 0 0 0 -0.595703,-0.4668 c 0,0 -1.1922722,0.35892 -2.0878908,1.20117 -0.4478092,0.42113 -0.8394639,0.99155 -0.9003906,1.70703 -0.060927,0.71549 0.221774,1.51815 0.9355469,2.35938 1.4046085,1.65544 3.2134955,2.34881 5.0976565,2.27929 1.884161,-0.0695 3.8419,-0.86493 5.708984,-2.10156 3.748509,-2.48277 5.809102,-6.1214 13.308594,-10.71484 3.702651,-2.26788 6.881785,-2.71765 9.136719,-2.61524 2.033793,0.0924 3.13976,0.57443 3.365234,0.67774 0.145439,0.39381 0.151957,1.06425 -0.08789,1.94336 -0.261394,0.95808 -0.761645,2.10648 -1.414062,3.29297 -1.304835,2.37297 -3.226255,4.90416 -5.033203,6.50586 -1.857343,1.64636 -6.515268,4.26203 -9.900391,7.31445 -1.692561,1.52621 -3.09126,3.17302 -3.658203,4.96094 -0.566943,1.78791 -0.21685,3.72095 1.46875,5.51562 0.926018,0.98594 1.914365,1.38886 2.830078,1.34766 0.915714,-0.0412 1.711497,-0.49329 2.361328,-1.03711 1.299663,-1.08764 2.09375,-2.61524 2.09375,-2.61524 a 0.45762862,0.45762862 0 0 0 -0.732422,-0.53125 c -0.970415,1.00074 -2.020385,1.17375 -2.728515,0.89453 -0.70813,-0.27921 -1.173244,-0.98322 -0.9375,-2.1914 0.09857,-0.50518 0.62264,-1.28929 1.441406,-2.1211 0.818766,-0.8318 1.911116,-1.73044 3.078125,-2.60351 2.334018,-1.74614 4.960583,-3.39169 6.376953,-4.33594 1.506033,-1.00402 3.497671,-3.16886 5.166016,-5.10742 1.303391,-1.5145 1.916521,-2.31851 2.330078,-2.8457 0.342571,1.4273 1.247564,2.90146 2.248047,4.1914 0.626752,0.80809 1.287435,1.53692 1.873047,2.10743 0.585611,0.5705 1.066001,0.97525 1.46289,1.18164 0.559993,0.29119 2.199809,1.23114 3.513672,2.54492 1.313863,1.31378 2.264085,2.92275 1.738281,4.68945 -0.124829,0.41943 -0.297185,0.63797 -0.511718,0.77734 -0.214534,0.13938 -0.503948,0.20745 -0.892579,0.20313 -0.77726,-0.009 -1.884782,-0.33523 -3.097656,-0.68359 -1.212874,-0.34837 -2.541168,-0.71245 -3.867187,-0.73243 -1.326019,-0.02 -2.67041,0.32969 -3.769531,1.39649 -2.122124,2.05971 -2.0471,4.26463 -1.382813,5.82031 0.664287,1.55569 1.853516,2.55859 1.853516,2.55859 a 0.45762862,0.45762862 0 0 0 0.646484,-0.64257 c 0,0 -0.183242,-0.20416 -0.232422,-0.66016 -0.04918,-0.456 0.04596,-1.14693 0.835938,-2.0918 0.728091,-0.87085 1.808407,-1.05899 2.976562,-0.96093 1.168156,0.0981 2.35202,0.50022 3.117188,0.73828 0.797326,0.24806 3.039638,0.8201 5.394531,0.61914 1.177446,-0.10048 2.386823,-0.3969 3.439453,-1.05469 1.05263,-0.65779 1.935511,-1.68629 2.425781,-3.16602 1.538902,-4.64469 -0.896583,-8.43421 -1.972656,-9.82031 0.815529,0.0901 1.780124,0.0651 3.099609,-0.30469 2.282743,-0.63986 3.549599,-1.66658 4.529297,-2.50781 0.979698,-0.84123 1.623226,-1.44961 2.869141,-1.55469 0.576796,-0.0486 0.774774,0.0968 0.933594,0.34571 0.158819,0.24893 0.231755,0.69205 0.210937,1.17969 -0.04164,0.97527 -0.412109,2.04101 -0.412109,2.04101 a 0.45762862,0.45762862 0 0 0 0.625,0.56836 c 2.725419,-1.266 3.871177,-3.47055 3.792969,-5.44727 -0.07821,-1.97672 -1.374761,-3.74845 -3.34375,-4.07031 -1.412244,-0.23084 -3.075384,0.0342 -4.621094,0.42969 1.998169,-1.22445 4.002795,-2.5189 5.685547,-3.75195 1.912333,-1.40128 3.384877,-2.16509 4.515625,-2.39649 1.130747,-0.23139 1.911122,0.006 2.695312,0.69922 0.291212,0.25761 0.314791,0.52779 0.167969,1.00195 -0.146822,0.47417 -0.515315,1.06219 -0.949219,1.60743 -0.867808,1.09047 -1.964844,2.01953 -1.964844,2.01953 a 0.45762862,0.45762862 0 0 0 0.359375,0.80273 c 3.989782,-0.56996 6.456203,-3.43991 7.125,-6.24023 0.334399,-1.40016 0.22975,-2.80225 -0.40039,-3.90235 -0.63014,-1.10009 -1.812161,-1.85381 -3.416016,-1.91797 -6.189789,-0.24758 -12.961142,5.10457 -15.701172,7.23047 -2.672505,2.0735 -5.016207,2.71274 -7.734375,3.10938 -1.301255,0.18989 -2.129092,-0.0106 -2.68164,-0.40039 -0.552548,-0.38979 -0.877196,-1.00688 -1.056641,-1.80078 -0.163339,-0.72266 0.04631,-1.19925 0.421875,-1.61524 0.375562,-0.41599 0.942048,-0.72635 1.400391,-0.90429 0.215706,-0.0837 0.313453,-0.10221 0.33789,-0.10743 0.08163,0.0782 0.344063,0.36597 0.97461,0.58789 a 0.45762862,0.45762862 0 0 0 0.472656,-0.10351 c 0,0 2.854951,-2.78218 5.089844,-4.38086 2.214358,-1.584 4.470226,-2.18747 6.464843,-3.15039 0.828708,-0.40006 3.15458,-0.92847 5.390625,-1.3457 2.236046,-0.41724 4.412834,-0.75379 5.226563,-0.91407 0.760073,-0.14971 1.41419,-0.22339 1.992187,-0.3789 0.577998,-0.15552 1.114459,-0.42642 1.449219,-0.95899 0.310716,-0.49432 0.348036,-0.90541 0.490234,-1.58398 0.142199,-0.67857 0.40069,-1.71322 1.144532,-3.59766 1.499077,-3.79765 2.914309,-6.95257 4.371094,-9.24414 0.722182,-1.13602 1.702536,-2.35272 2.447265,-3.33789 0.372365,-0.49259 0.686416,-0.92338 0.890625,-1.29297 0.102104,-0.18479 0.181132,-0.34961 0.216797,-0.54883 0.01783,-0.0996 0.02515,-0.21328 -0.01172,-0.34375 -0.03687,-0.13046 -0.133433,-0.27055 -0.253906,-0.34961 -0.288394,-0.18925 -0.529695,-0.29376 -0.779297,-0.33203 -0.249602,-0.0383 -0.471291,-0.0355 -0.9375,-0.0918 -0.409181,-0.0494 -0.948593,0.0353 -1.746094,0.15234 -0.7975,0.11706 -1.782417,0.2859 -2.804687,0.46484 -2.04454,0.3579 -4.250909,0.75909 -5.291016,0.8711 -2.148146,0.23134 -5.388879,0.41406 -12.814453,0.41406 h -1.101562 a 0.45762862,0.45762862 0 0 0 -0.414063,0.26367 c 0.02797,-0.0602 0.0027,-0.009 -0.03906,0.043 -0.04176,0.0515 -0.104247,0.12552 -0.183594,0.21289 -0.158695,0.17474 -0.382567,0.40855 -0.646484,0.67774 -0.527836,0.53836 -1.22126,1.22206 -1.925782,1.91015 -1.409043,1.37618 -2.833121,2.73763 -3.148437,3.0625 -0.4779,0.49238 -4.600137,4.34003 -6.173828,5.60547 -1.550856,1.24708 -3.779177,2.22986 -5.072266,2.27344 -0.689823,0.0233 -1.156489,-0.0813 -1.443359,-0.18164 -0.286871,-0.10029 -0.359375,-0.16797 -0.359375,-0.16797 a 0.45762862,0.45762862 0 0 0 -0.03516,-0.0254 c 0,0 -0.365938,-0.28121 -0.880859,-0.28125 -0.257461,-2e-5 -0.583024,0.10746 -0.800781,0.36914 -0.217757,0.26168 -0.32375,0.61932 -0.347656,1.08789 -0.0382,0.74873 -0.214374,1.08709 -0.435547,1.28906 -0.221174,0.20197 -0.566619,0.30931 -1.050782,0.38867 -0.270102,0.0443 -0.625386,-0.15165 -0.941406,-0.57031 -0.316019,-0.41866 -0.535878,-1.01545 -0.548828,-1.44922 -0.01266,-0.42394 0.184148,-1.19399 0.570313,-2.04297 0.386164,-0.84898 0.950278,-1.79146 1.621093,-2.65625 0.582443,-0.75086 1.955103,-1.50309 3.314453,-2.07031 1.359351,-0.56722 2.662648,-0.96249 3.285157,-1.24023 0.498115,-0.22224 1.965606,-0.76967 3.595703,-1.72461 1.630096,-0.95494 3.457862,-2.33163 4.773437,-4.28321 a 0.45762862,0.45762862 0 0 0 0.01953,-0.0293 c 1.335937,-2.34389 0.780343,-4.05814 0.166016,-4.89453 -0.648405,-0.8828 -1.980685,-1.51729 -3.693359,-1.375 z"
         id="path1021"
         style="display:inline;opacity:1;fill:#00009d;fill-opacity:1;stroke:none;stroke-width:0.1;stroke-linecap:round;stroke-linejoin:round;stroke-miterlimit:4;stroke-dasharray:none;stroke-opacity:1;image-rendering:auto"
         inkscape:original="M 60.611328 212.80859 C 59.032848 212.93972 57.365234 214.81836 57.365234 214.81836 C 57.365234 214.81836 57.829132 214.63321 60.273438 214.125 C 62.21926 213.74249 63.136148 215.86287 61.394531 217.69531 C 59.637931 219.54352 57.780425 220.38806 53.724609 222.01172 C 49.949428 223.4483 48.339737 222.73293 44.865234 224.87109 C 43.138989 225.9334 42.460988 226.45952 42.005859 227.15039 C 42.292361 226.44436 42.461899 226.01449 42.822266 225.13477 C 44.526024 220.9756 42.84005 218.36876 40.083984 217.95117 C 37.327904 217.53359 35.791016 219.83984 35.791016 219.83984 C 36.726408 219.68951 37.929079 219.80607 39.148438 220.54102 C 40.367789 221.27597 39.332812 224.21579 37.445312 226.62109 C 35.833205 228.67546 35.709349 231.8059 35.707031 232.68164 C 35.086279 231.20472 34.624938 229.46861 34.207031 227.71094 C 33.071135 222.9335 29.730055 220.52693 24.71875 221.86328 C 19.707448 223.19962 21.879107 235.49497 18.037109 237.26562 C 14.195111 239.03628 10.888879 233.55768 10.855469 233.39062 C 10.919589 237.90923 15.089785 241.24862 17.59375 241.67383 C 20.097714 242.09902 23.782725 240.16244 25.341797 233.87891 C 26.90087 227.59538 30.539959 225.61105 31.673828 234.63477 C 32.573083 241.79134 36.018935 243.03026 37.410156 243.23828 C 36.556518 243.29318 34.67083 243.75525 31.058594 246.06836 C 25.672708 249.5172 23.689679 254.09918 17.169922 258.39844 C 10.650166 262.6977 11.121094 255.75391 11.121094 255.75391 C 11.121094 255.75391 6.6335979 257.17093 9.2792969 260.28906 C 11.924995 263.40722 15.84654 262.79226 19.484375 260.38281 C 23.12221 257.97334 25.247503 254.28817 32.806641 249.6582 C 40.36578 245.02822 45.929688 247.76758 45.929688 247.76758 C 47.065525 249.97244 43.043276 256.89005 39.314453 260.19531 C 35.402374 263.663 20.855137 270.51715 27.255859 277.33203 C 30.699088 280.99806 33.802734 275.12695 33.802734 275.12695 C 31.664686 277.33181 28.824861 276.1632 29.359375 273.42383 C 29.893886 270.68446 37.644985 265.9411 40.451172 264.07031 C 43.257359 262.19952 48.492187 255.42188 48.492188 255.42188 C 48.515817 258.46916 52.814984 262.95809 53.996094 263.57227 C 55.177213 264.18645 60.657678 267.37521 59.476562 271.34375 C 58.295448 275.3123 51.232587 268.60427 47.216797 272.50195 C 43.201004 276.39963 47.666016 280.20508 47.666016 280.20508 C 47.666016 280.20508 46.563822 278.90306 48.267578 276.86523 C 49.971335 274.82741 53.346294 276.03035 54.849609 276.49805 C 56.352921 276.96575 63.701682 278.73501 65.539062 273.18945 C 67.376442 267.64389 63.134766 263.16797 63.134766 263.16797 C 63.053826 263.05024 62.945483 262.93011 62.822266 262.80859 C 63.606683 263.16522 64.893483 263.35143 66.976562 262.76758 C 71.386282 261.53152 71.686204 258.92526 74.458984 258.69141 C 77.231764 258.45756 75.662109 262.86719 75.662109 262.86719 C 80.840189 260.46189 79.704809 254.78276 76.230469 254.21484 C 73.412319 253.75419 69.105677 255.42989 67.560547 256.08594 C 70.473917 254.50855 74.302489 252.12189 77.099609 250.07227 C 80.974829 247.23267 83.145653 246.86561 84.882812 248.40234 C 86.619983 249.93906 82.128906 253.72266 82.128906 253.72266 C 89.735296 252.63604 91.389955 242.8085 85.484375 242.57227 C 79.578795 242.33605 72.822211 247.58101 70.082031 249.70703 C 67.341841 251.83304 64.884815 252.50662 62.132812 252.9082 C 59.380812 253.30979 58.270627 252.0799 57.880859 250.35547 C 57.491096 248.63105 58.980427 247.69835 59.984375 247.30859 C 60.988324 246.91882 60.398278 247.35488 61.615234 247.7832 C 61.615234 247.7832 64.471386 244.99436 66.759766 243.35742 C 69.048136 241.72048 71.353406 241.10337 73.291016 240.16797 C 75.228626 239.23258 82.460461 238.17818 84.019531 237.87109 C 85.578601 237.56399 86.642409 237.56506 87.162109 236.73828 C 87.681799 235.9115 87.254533 235.4412 88.757812 231.63281 C 90.261133 227.82441 91.681359 224.64904 93.167969 222.31055 C 94.654579 219.97206 97.126317 217.41719 96.591797 217.06641 C 96.057287 216.71564 96.041066 216.83176 95.072266 216.71484 C 94.103456 216.59791 87.505444 217.96928 85.333984 218.20312 C 83.162534 218.43697 79.903753 218.61914 72.470703 218.61914 L 71.369141 218.61914 C 71.151991 219.08684 65.891054 224.08247 65.339844 224.65039 C 64.788624 225.21831 60.745237 228.99205 59.125 230.29492 C 57.50476 231.59779 55.267862 232.61787 53.78125 232.66797 C 52.294644 232.71807 51.675781 232.2168 51.675781 232.2168 C 51.675781 232.2168 50.438987 231.39822 50.355469 233.03516 C 50.271949 234.6721 49.505241 234.9736 48.486328 235.14062 C 47.467415 235.30766 46.498256 233.80272 46.464844 232.68359 C 46.431434 231.56445 47.365563 229.47673 48.751953 227.68945 C 50.138343 225.90218 54.441616 224.7266 55.527344 224.24219 C 56.61307 223.75779 61.18089 222.13806 63.703125 218.39648 C 64.968575 216.17626 64.426578 214.71905 63.898438 214 C 63.3703 213.28095 62.189809 212.67745 60.611328 212.80859 z "
         inkscape:radius="0.45758286"
         sodipodi:type="inkscape:offset" />
    </g>
    <g
       inkscape:groupmode="layer"
       id="layer6"
       inkscape:label="sepia_silk"
       style="display:inline;opacity:1">
      <g
         id="g1029">
        <g
           id="g916">
          <path
             style="display:inline;fill:none;fill-opacity:1;stroke:#ffffff;stroke-width:0.5;stroke-linecap:round;stroke-linejoin:round;stroke-miterlimit:4;stroke-dasharray:none;stroke-opacity:1;image-rendering:auto"
             d="m 35.706346,232.68258 c 1.023141,1.70802 3.161664,4.24869 5.249708,4.04823 0,0 -2.204974,-2.73951 -0.501132,-6.24742 l 1.550267,-3.33278 v 0"
             id="path896"
             inkscape:connector-curvature="0"
             sodipodi:nodetypes="ccccc" />
          <path
             style="display:inline;fill:none;fill-opacity:1;stroke:#ffffff;stroke-width:0.5;stroke-linecap:round;stroke-linejoin:round;stroke-miterlimit:4;stroke-dasharray:none;stroke-opacity:1;image-rendering:auto"
             d="m 67.560216,256.08528 c -1.9204,0.96864 -1.535984,0.86909 -2.855562,1.4036 -2.639149,1.06903 -6.380736,1.40309 -8.518781,-0.73496 0,0 1.40309,2.73938 2.472115,3.40752 1.069026,0.66814 3.741707,1.93759 4.476659,3.00661"
             id="path892"
             inkscape:connector-curvature="0"
             sodipodi:nodetypes="cccsc" />
          <path
             style="display:inline;fill:none;stroke:#ffffff;stroke-width:0.5;stroke-linecap:round;stroke-linejoin:round;stroke-miterlimit:4;stroke-dasharray:none;stroke-opacity:1;image-rendering:auto"
             clip-path="none"
             d="m 60.610479,212.80874 c -2.291705,0.58307 -3.245277,2.00919 -3.245277,2.00919 0,0 0.464041,-0.18426 2.908346,-0.69247 1.284364,-0.21715 2.034294,0.6559 2.045541,1.5623 0.03164,2.54961 -4.538648,4.69944 -8.594464,6.3231 -3.775181,1.43658 -5.38516,0.72164 -8.859663,2.8598 -1.726245,1.0623 -2.404644,1.5891 -2.859773,2.27996 0.286502,-0.70602 0.457669,-1.13669 0.818036,-2.01641 1.703758,-4.15917 0.0167,-6.76492 -2.739366,-7.18251 -2.75608,-0.41758 -4.292761,1.88774 -4.292761,1.88774 0.935392,-0.15033 2.138058,-0.0337 3.357417,0.70125 1.219351,0.73495 0.183729,3.67494 -1.703771,6.08025 -1.612107,2.05436 -1.73608,5.1859 -1.738398,6.06164 -0.620752,-1.47692 -1.08071,-3.21464 -1.498617,-4.9723 -1.135896,-4.77744 -4.477004,-7.18251 -9.488309,-5.84616 -5.011302,1.33634 -2.839764,13.63047 -6.681762,15.40113 -3.841998,1.77066 -7.149614,-3.70817 -7.183024,-3.87522 0.06412,4.51861 4.235158,7.85957 6.739123,8.28477 2.503964,0.4252 6.189292,-1.51186 7.748364,-7.79539 1.559073,-6.28354 5.19701,-8.26821 6.330879,0.75551 0.899255,7.15656 4.345899,8.39558 5.73712,8.60361 -0.853638,0.0549 -2.739316,0.5167 -6.351552,2.8298 -5.385886,3.44885 -7.369834,8.03177 -13.889591,12.33103 -6.519756,4.29926 -6.047693,-2.64583 -6.047693,-2.64583 0,0 -4.487964,1.4175 -1.842265,4.53564 2.645698,3.11816 6.56671,2.50404 10.204545,0.0946 3.637835,-2.40947 5.76408,-6.09496 13.323218,-10.72493 7.559139,-4.62998 13.123231,-1.89136 13.123231,-1.89136 1.135838,2.20486 -2.88576,9.12189 -6.614583,12.42715 -3.912079,3.46769 -18.460969,10.32309 -12.060247,17.13797 3.443229,3.66603 6.547922,-2.20503 6.547922,-2.20503 -2.138048,2.20486 -4.977654,1.0356 -4.44314,-1.70377 0.534511,-2.73937 8.285126,-7.48316 11.091313,-9.35395 2.806187,-1.87079 8.040852,-8.64702 8.040852,-8.64702 0.02363,3.04728 4.322429,7.53571 5.503539,8.14989 1.181119,0.61418 6.66192,3.80308 5.480804,7.77162 -1.181115,3.96855 -8.244443,-2.74013 -12.260233,1.15755 -4.015793,3.89768 0.450617,7.70392 0.450617,7.70392 0,0 -1.102241,-1.30306 0.601515,-3.34088 1.703757,-2.03783 5.077679,-0.83512 6.580994,-0.36742 1.503312,0.4677 8.852919,2.23827 10.690302,-3.30729 1.837383,-5.54556 -2.40502,-10.02213 -2.40502,-10.02213 -0.08094,-0.11773 -0.18891,-0.23815 -0.312127,-0.35967 0.784413,0.35664 2.07068,0.54255 4.153752,-0.0413 4.409719,-1.23606 4.710489,-3.84187 7.483269,-4.07572 2.77278,-0.23385 1.20251,4.17598 1.20251,4.17598 5.17808,-2.40531 4.04225,-8.08427 0.56792,-8.65219 -2.81816,-0.46066 -7.124628,1.21411 -8.669755,1.87017 2.913375,-1.57739 6.741315,-3.96294 9.538435,-6.01255 3.87521,-2.8396 6.04686,-3.20743 7.78402,-1.6707 1.73717,1.53672 -2.7528,5.32009 -2.7528,5.32009 7.60639,-1.08662 9.2599,-10.91348 3.35432,-11.14971 -5.90558,-0.23622 -12.66147,5.00792 -15.40165,7.13393 -2.740189,2.12601 -5.196869,2.79926 -7.948866,3.20084 -2.752,0.40158 -3.862171,-0.82684 -4.251939,-2.55127 -0.389763,-1.72442 1.098251,-2.65759 2.102199,-3.04736 1.003949,-0.38977 0.413436,0.0471 1.630392,0.47543 0,0 2.856526,-2.78915 5.144905,-4.42609 2.288376,-1.63694 4.593259,-2.2551 6.530869,-3.1905 1.93761,-0.93539 9.17051,-1.9889 10.72958,-2.29599 1.55907,-0.3071 2.62222,-0.307 3.14192,-1.13378 0.51969,-0.82678 0.093,-1.29724 1.59629,-5.10563 1.50332,-3.8084 2.92294,-6.98239 4.40955,-9.32088 1.48661,-2.33849 3.9586,-4.89386 3.42408,-5.24464 -0.53451,-0.35077 -0.551,-0.23396 -1.51981,-0.35088 -0.9688,-0.11693 -7.56697,1.25288 -9.73842,1.48673 -2.17146,0.23385 -5.4287,0.41755 -12.86175,0.41755 h -1.10225 c -0.21716,0.4677 -5.478911,5.4622 -6.030128,6.03012 -0.551215,0.56792 -4.593336,4.34278 -6.213573,5.64565 -1.62024,1.30287 -3.858284,2.32185 -5.344896,2.37195 -1.486606,0.0501 -2.104778,-0.45114 -2.104778,-0.45114 0,0 -1.236298,-0.81838 -1.319816,0.81856 -0.08352,1.63694 -0.851776,1.93775 -1.870689,2.10478 -1.018913,0.16704 -1.987653,-1.33654 -2.021065,-2.45567 -0.03341,-1.11914 0.901843,-3.20724 2.288233,-4.99452 1.38639,-1.78727 3.690166,-2.15718 6.775408,-3.44753 3.085242,-1.29035 9.131776,-4.31197 8.950707,-8.39951 -0.07252,-1.63709 -1.576511,-3.61697 -3.868216,-3.0339 z"
             id="path56-7"
             inkscape:connector-curvature="0"
             sodipodi:nodetypes="zccscscccccscscscsssccsccccccscssccsscccsccsscscsccccscccsccccsccsscccccsccczaz" />
        </g>
      </g>
      <path
         style="display:inline;fill:none;stroke:#ffffff;stroke-width:0.5;stroke-linecap:butt;stroke-linejoin:miter;stroke-miterlimit:4;stroke-dasharray:none;stroke-opacity:1"
         d="m 94.570496,217.935 c 0,0 -12.09333,8.81944 -13.89731,10.82386 0,0 -1.4365,-1.10243 -5.34511,0.60133 -3.90862,1.70376 -3.70818,2.33849 -3.70818,2.33849"
         id="path4692-2"
         inkscape:connector-curvature="0" />
      <path
         style="display:inline;fill:none;stroke:#ffffff;stroke-width:0.26458332px;stroke-linecap:butt;stroke-linejoin:miter;stroke-opacity:1"
         d="m 51.869893,234.94226 c 0,0 1.86616,0.23623 1.88978,2.52759"
         id="path835-1"
         inkscape:connector-curvature="0" />
      <path
         style="display:inline;fill:none;stroke:#ffffff;stroke-width:0.26458332px;stroke-linecap:butt;stroke-linejoin:miter;stroke-opacity:1"
         d="m 57.751843,242.83212 c 0,0 1.55908,-0.11811 2.14963,2.36223"
         id="path837-2"
         inkscape:connector-curvature="0" />
      <path
         style="display:inline;fill:none;stroke:#ffffff;stroke-width:0.26458332px;stroke-linecap:butt;stroke-linejoin:miter;stroke-opacity:1"
         d="m 58.129803,243.39905 c 0,0 -1.85435,0.56694 -1.55907,2.18507 0.295279,1.61812 2.89373,0.0354 2.46853,-0.69686"
         id="path839-7"
         inkscape:connector-curvature="0" />
      <path
         style="display:inline;fill:#ffffff;fill-opacity:1;stroke:#ffffff;stroke-width:0.26458332px;stroke-linecap:butt;stroke-linejoin:miter;stroke-opacity:1"
         d="m 57.881773,244.63922 c 0,0 -1.00395,-0.56693 -1.1575,0.18898 -0.15354,0.75592 -0.0472,1.38191 0.50788,1.42915 0.55513,0.0472 1.20474,-1.14568 0.64962,-1.61813 z"
         id="path841-0"
         inkscape:connector-curvature="0" />
      <path
         style="display:inline;fill:none;stroke:#ffffff;stroke-width:0.26458332px;stroke-linecap:butt;stroke-linejoin:miter;stroke-opacity:1"
         d="m 52.507693,235.69818 c 0,0 -0.53111,-0.74232 -1.49156,0.90297 -0.960451,1.6453 0.86023,1.50332 1.29452,1.11914 0.43429,-0.38418 1.194299,-0.76836 0.99386,-1.07738"
         id="path843-9"
         inkscape:connector-curvature="0" />
      <path
         style="display:inline;fill:#ffffff;fill-opacity:1;stroke:#ffffff;stroke-width:0.26458332px;stroke-linecap:butt;stroke-linejoin:miter;stroke-opacity:1"
         d="m 52.252192,236.48423 c 0,0 -0.38418,-0.6932 -1.035619,-0.0167 -0.651431,0.67649 -0.618021,1.67035 0.54287,1.4532 1.16089,-0.21714 0.492749,-1.4365 0.492749,-1.4365 z"
         id="path845-3"
         inkscape:connector-curvature="0" />
    </g>
    <g
       id="g58"
       inkscape:groupmode="layer"
       inkscape:label="sepia_body_full"
       style="display:none;opacity:1"
       sodipodi:insensitive="true">
      <path
         style="fill:none;stroke:#000000;stroke-width:1.88976383;stroke-linecap:round;stroke-linejoin:round;stroke-miterlimit:4;stroke-dasharray:none;stroke-opacity:1;image-rendering:auto"
         clip-path="none"
         d="m 229.07898,59.749585 c -5.96591,0.49562 -12.26562,7.59375 -12.26562,7.59375 0,0 1.75386,-0.696394 10.99218,-2.617188 7.35429,-1.445724 10.82273,6.564463 4.24024,13.490235 -6.63912,6.985358 -13.66301,10.176176 -28.99208,16.312839 -14.2684,5.429592 -20.35336,2.727436 -33.48534,10.808669 -6.52439,4.01502 -9.08842,6.00606 -10.80859,8.61719 1.08284,-2.66843 1.72977,-4.29616 3.09179,-7.6211 6.4394,-15.719688 0.0631,-25.568187 -10.35351,-27.14648 -10.41668,-1.578255 -16.22461,7.134766 -16.22461,7.134766 3.53534,-0.568177 8.08085,-0.127411 12.68945,2.65039 4.60857,2.777764 0.69441,13.889544 -6.43945,22.980464 -6.093,7.76453 -6.56156,19.60027 -6.57032,22.91016 -2.34615,-5.58206 -4.08457,-12.14983 -5.66406,-18.79297 C 124.99591,98.013849 112.3681,88.923838 93.427734,93.974609 74.487378,99.025343 82.694769,145.49134 68.173828,152.18359 53.652891,158.87585 41.151665,138.16848 41.025391,137.53711 c 0.242335,17.07821 16.006898,29.70544 25.470703,31.3125 9.463801,1.60705 23.3926,-5.71412 29.285156,-29.46289 5.89256,-23.74881 19.64224,-31.24993 23.92773,2.85547 3.39876,27.04842 16.42544,31.73134 21.6836,32.51758 -3.22635,0.20748 -10.35332,1.95288 -24.00586,10.69531 -20.356107,13.03502 -27.854494,30.3563 -52.496095,46.60547 -24.641597,16.24917 -22.857422,-10 -22.857422,-10 0,0 -16.962382,5.35749 -6.962891,17.14257 9.999489,11.78518 24.819062,9.46412 38.56836,0.35743 13.749298,-9.10666 21.785499,-23.03606 50.355468,-40.53516 28.56997,-17.49914 49.59961,-7.14844 49.59961,-7.14844 4.29293,8.33333 -10.90681,34.47643 -25,46.96875 -14.78581,13.10623 -69.773737,39.01641 -45.58203,64.77344 13.01378,13.85586 24.74805,-8.33398 24.74805,-8.33398 -8.08081,8.33333 -18.81318,3.91407 -16.79297,-6.43946 2.0202,-10.35352 31.31386,-28.28281 41.91992,-35.35351 10.60606,-7.0707 30.39062,-32.68164 30.39062,-32.68164 0.0893,11.51728 16.33674,28.48142 20.80078,30.80273 4.46407,2.32131 25.17891,14.37384 20.71485,29.37305 -4.46406,14.99924 -31.1601,-10.35639 -46.33789,4.375 -15.1778,14.73139 1.70312,29.11719 1.70312,29.11719 0,0 -4.16595,-4.92496 2.27344,-12.62696 6.4394,-7.70203 19.19123,-3.15635 24.87305,-1.38867 5.68181,1.76769 33.45985,8.4596 40.40429,-12.5 6.94444,-20.9596 -9.08984,-37.87891 -9.08984,-37.87891 -0.30592,-0.44496 -0.71399,-0.90008 -1.17969,-1.35937 2.96471,1.34791 7.82619,2.05058 15.69922,-0.15625 16.66666,-4.67172 17.80341,-14.52046 28.28321,-15.4043 10.47979,-0.88384 4.54492,15.78321 4.54492,15.78321 19.57069,-9.09092 15.27781,-30.55471 2.14648,-32.70118 -10.6513,-1.74107 -26.92773,4.58877 -32.76758,7.06836 11.01117,-5.9618 25.47898,-14.97803 36.05078,-22.72461 14.64647,-10.73234 22.85428,-12.12256 29.41993,-6.31445 6.56568,5.80808 -10.4043,20.10742 -10.4043,20.10742 28.74856,-4.10691 34.99804,-41.24778 12.67773,-42.14062 -22.3203,-0.8928 -47.85435,18.92757 -58.21093,26.96289 -10.35663,8.03531 -19.64172,10.57987 -30.04297,12.09765 -10.40126,1.51779 -14.59718,-3.12504 -16.07032,-9.64257 -1.47312,-6.5175 4.15087,-10.04447 7.94532,-11.51758 3.79445,-1.47315 1.56259,0.17787 6.16211,1.79687 0,0 10.79632,-10.54165 19.44531,-16.72851 8.64898,-6.18686 17.36034,-8.52323 24.68359,-12.0586 7.32325,-3.53533 34.66019,-7.51708 40.55274,-8.67773 5.89255,-1.16069 9.91078,-1.16032 11.875,-4.28516 1.96418,-3.12483 0.3514,-4.90296 6.0332,-19.29687 5.68184,-14.39395 11.04733,-26.39013 16.66602,-35.228518 5.61868,-8.838386 14.96164,-18.496482 12.9414,-19.822265 -2.02019,-1.325745 -2.08253,-0.88427 -5.74414,-1.326172 -3.66164,-0.44194 -28.59958,4.735298 -36.80664,5.619141 -8.20709,0.883842 -20.51791,1.578125 -48.61133,1.578125 h -4.16601 c -0.82073,1.767685 -20.70768,20.644549 -22.79102,22.791019 -2.08333,2.14647 -17.36064,16.41365 -23.48437,21.33789 -6.12374,4.92423 -14.58249,8.77549 -20.20118,8.96484 -5.61867,0.18939 -7.95507,-1.70508 -7.95507,-1.70508 0,0 -4.67262,-3.09311 -4.98828,3.09375 -0.31566,6.18686 -3.21931,7.32379 -7.07032,7.95508 -3.85101,0.63133 -7.51239,-5.05147 -7.63867,-9.28125 -0.12626,-4.22982 3.40854,-12.12188 8.64844,-18.87695 5.2399,-6.75504 21.5043,-11.19917 25.60784,-13.03001 4.10353,-1.83081 21.36259,-7.954491 30.89544,-22.095899 4.7828,-8.391403 2.73384,-13.89586 0.73773,-16.613521 -1.99611,-2.717661 -6.45784,-4.998795 -12.42375,-4.503175 z"
         transform="matrix(0.26458333,0,0,0.26458333,0,197)"
         id="path56"
         inkscape:connector-curvature="0"
         sodipodi:nodetypes="zccscscccccscscscsssccsccccccscssccsscccsccsscscsccccscccsccccsccsscccccsccccczz" />
    </g>
    <g
       inkscape:groupmode="layer"
       id="layer7"
       inkscape:label="sepia_body_edge"
       style="display:inline"
       sodipodi:insensitive="true">
      <path
         sodipodi:type="inkscape:offset"
         inkscape:radius="0.45758286"
         inkscape:original="M 60.611328 212.80859 C 59.032848 212.93972 57.365234 214.81836 57.365234 214.81836 C 57.365234 214.81836 57.829132 214.63321 60.273438 214.125 C 62.21926 213.74249 63.136148 215.86287 61.394531 217.69531 C 59.637931 219.54352 57.780425 220.38806 53.724609 222.01172 C 49.949428 223.4483 48.339737 222.73293 44.865234 224.87109 C 43.138989 225.9334 42.460988 226.45952 42.005859 227.15039 C 42.292361 226.44436 42.461899 226.01449 42.822266 225.13477 C 44.526024 220.9756 42.84005 218.36876 40.083984 217.95117 C 37.327904 217.53359 35.791016 219.83984 35.791016 219.83984 C 36.726408 219.68951 37.929079 219.80607 39.148438 220.54102 C 40.367789 221.27597 39.332812 224.21579 37.445312 226.62109 C 35.833205 228.67546 35.709349 231.8059 35.707031 232.68164 C 35.086279 231.20472 34.624938 229.46861 34.207031 227.71094 C 33.071135 222.9335 29.730055 220.52693 24.71875 221.86328 C 19.707448 223.19962 21.879107 235.49497 18.037109 237.26562 C 14.195111 239.03628 10.888879 233.55768 10.855469 233.39062 C 10.919589 237.90923 15.089785 241.24862 17.59375 241.67383 C 20.097714 242.09902 23.782725 240.16244 25.341797 233.87891 C 26.90087 227.59538 30.539959 225.61105 31.673828 234.63477 C 32.573083 241.79134 36.018935 243.03026 37.410156 243.23828 C 36.556518 243.29318 34.67083 243.75525 31.058594 246.06836 C 25.672708 249.5172 23.689679 254.09918 17.169922 258.39844 C 10.650166 262.6977 11.121094 255.75391 11.121094 255.75391 C 11.121094 255.75391 6.6335979 257.17093 9.2792969 260.28906 C 11.924995 263.40722 15.84654 262.79226 19.484375 260.38281 C 23.12221 257.97334 25.247503 254.28817 32.806641 249.6582 C 40.36578 245.02822 45.929688 247.76758 45.929688 247.76758 C 47.065525 249.97244 43.043276 256.89005 39.314453 260.19531 C 35.402374 263.663 20.855137 270.51715 27.255859 277.33203 C 30.699088 280.99806 33.802734 275.12695 33.802734 275.12695 C 31.664686 277.33181 28.824861 276.1632 29.359375 273.42383 C 29.893886 270.68446 37.644985 265.9411 40.451172 264.07031 C 43.257359 262.19952 48.492187 255.42188 48.492188 255.42188 C 48.515817 258.46916 52.814984 262.95809 53.996094 263.57227 C 55.177213 264.18645 60.657678 267.37521 59.476562 271.34375 C 58.295448 275.3123 51.232587 268.60427 47.216797 272.50195 C 43.201004 276.39963 47.666016 280.20508 47.666016 280.20508 C 47.666016 280.20508 46.563822 278.90306 48.267578 276.86523 C 49.971335 274.82741 53.346294 276.03035 54.849609 276.49805 C 56.352921 276.96575 63.701682 278.73501 65.539062 273.18945 C 67.376442 267.64389 63.134766 263.16797 63.134766 263.16797 C 63.053826 263.05024 62.945483 262.93011 62.822266 262.80859 C 63.606683 263.16522 64.893483 263.35143 66.976562 262.76758 C 71.386282 261.53152 71.686204 258.92526 74.458984 258.69141 C 77.231764 258.45756 75.662109 262.86719 75.662109 262.86719 C 80.840189 260.46189 79.704809 254.78276 76.230469 254.21484 C 73.412319 253.75419 69.105677 255.42989 67.560547 256.08594 C 70.473917 254.50855 74.302489 252.12189 77.099609 250.07227 C 80.974829 247.23267 83.145653 246.86561 84.882812 248.40234 C 86.619983 249.93906 82.128906 253.72266 82.128906 253.72266 C 89.735296 252.63604 91.389955 242.8085 85.484375 242.57227 C 79.578795 242.33605 72.822211 247.58101 70.082031 249.70703 C 67.341841 251.83304 64.884815 252.50662 62.132812 252.9082 C 59.380812 253.30979 58.270627 252.0799 57.880859 250.35547 C 57.491096 248.63105 58.980427 247.69835 59.984375 247.30859 C 60.988324 246.91882 60.398278 247.35488 61.615234 247.7832 C 61.615234 247.7832 64.471386 244.99436 66.759766 243.35742 C 69.048136 241.72048 71.353406 241.10337 73.291016 240.16797 C 75.228626 239.23258 82.460461 238.17818 84.019531 237.87109 C 85.578601 237.56399 86.642409 237.56506 87.162109 236.73828 C 87.681799 235.9115 87.254533 235.4412 88.757812 231.63281 C 90.261133 227.82441 91.681359 224.64904 93.167969 222.31055 C 94.654579 219.97206 97.126317 217.41719 96.591797 217.06641 C 96.057287 216.71564 96.041066 216.83176 95.072266 216.71484 C 94.103456 216.59791 87.505444 217.96928 85.333984 218.20312 C 83.162534 218.43697 79.903753 218.61914 72.470703 218.61914 L 71.369141 218.61914 C 71.151991 219.08684 65.891054 224.08247 65.339844 224.65039 C 64.788624 225.21831 60.745237 228.99205 59.125 230.29492 C 57.50476 231.59779 55.267862 232.61787 53.78125 232.66797 C 52.294644 232.71807 51.675781 232.2168 51.675781 232.2168 C 51.675781 232.2168 50.438987 231.39822 50.355469 233.03516 C 50.271949 234.6721 49.505241 234.9736 48.486328 235.14062 C 47.467415 235.30766 46.498256 233.80272 46.464844 232.68359 C 46.431434 231.56445 47.365563 229.47673 48.751953 227.68945 C 50.138343 225.90218 54.441616 224.7266 55.527344 224.24219 C 56.61307 223.75779 61.18089 222.13806 63.703125 218.39648 C 64.968575 216.17626 64.426578 214.71905 63.898438 214 C 63.3703 213.28095 62.189809 212.67745 60.611328 212.80859 z "
         style="display:inline;opacity:1;fill:none;stroke:#000000;stroke-width:0.1;stroke-linecap:round;stroke-linejoin:round;stroke-miterlimit:4;stroke-dasharray:none;stroke-opacity:1;image-rendering:auto"
         id="path56-6"
         d="m 60.574219,212.35352 c -0.95566,0.0794 -1.813256,0.63785 -2.460938,1.15039 -0.647682,0.51253 -1.089843,1.00976 -1.089843,1.00976 a 0.45762862,0.45762862 0 0 0 0.511718,0.73047 c 0,0 0.405981,-0.16638 2.826172,-0.66992 0.802542,-0.15777 1.240857,0.14924 1.423828,0.66016 0.182972,0.51091 0.05981,1.32321 -0.722656,2.14648 -1.693582,1.78191 -3.45807,2.58385 -7.507812,4.20508 -1.839144,0.69883 -3.137409,0.87268 -4.464844,1.14453 -1.329542,0.27228 -2.681331,0.65245 -4.464844,1.75 -0.636266,0.39155 -1.026958,0.67426 -1.435547,0.9668 0.02308,-0.0565 0.03185,-0.0781 0.05664,-0.13868 0.88466,-2.15961 0.915443,-3.98859 0.296875,-5.35742 -0.618568,-1.36883 -1.886817,-2.22527 -3.390625,-2.45312 -3.027713,-0.45874 -4.742188,2.08789 -4.742188,2.08789 a 0.45762862,0.45762862 0 0 0 0.453125,0.70508 c 0.838136,-0.1347 1.92508,-0.0348 3.048828,0.64257 0.164815,0.0993 0.26001,0.25461 0.294922,0.57813 0.03491,0.32352 -0.02416,0.78532 -0.183593,1.31055 -0.318878,1.05045 -1.024568,2.35224 -1.9375,3.51562 -1.057874,1.34809 -1.438732,2.89219 -1.628907,4.23242 -0.292676,-0.9507 -0.561282,-1.94111 -0.804687,-2.96484 -0.587303,-2.47012 -1.762885,-4.386 -3.488282,-5.49609 -1.725396,-1.1101 -3.966308,-1.37982 -6.5625,-0.6875 -1.429569,0.38121 -2.334724,1.55184 -2.923828,2.98828 -0.589103,1.43643 -0.90651,3.18029 -1.189453,4.91796 -0.282943,1.73768 -0.529287,3.4712 -0.929687,4.84376 -0.4004,1.37255 -0.950098,2.32618 -1.712891,2.67773 -0.856379,0.39468 -1.646816,0.3843 -2.410156,0.14453 -0.76334,-0.23977 -1.490038,-0.72541 -2.113281,-1.28125 -0.623244,-0.55584 -1.141533,-1.17792 -1.501954,-1.66797 -0.18021,-0.24502 -0.321624,-0.45782 -0.416015,-0.60937 -0.0472,-0.0758 -0.08197,-0.13676 -0.103516,-0.17578 -0.0086,-0.0155 -0.01443,-0.0231 -0.01758,-0.0293 a 0.45762862,0.45762862 0 0 0 -0.884765,0.16601 c 0.03403,2.39843 1.154576,4.46764 2.578124,5.98438 1.423549,1.51674 3.135445,2.50545 4.541016,2.74414 2.803098,0.47598 6.673214,-1.71095 8.267578,-8.13672 0.381104,-1.53596 0.891863,-2.79973 1.433594,-3.66992 0.541731,-0.87019 1.10885,-1.29898 1.503906,-1.34766 0.197528,-0.0243 0.373486,0.0161 0.591797,0.17383 0.218311,0.15775 0.467003,0.44624 0.707031,0.89649 0.480058,0.90049 0.919785,2.42656 1.199219,4.65039 0.458234,3.64678 1.576122,5.84729 2.802735,7.16211 0.597212,0.64015 1.215554,1.05916 1.783203,1.33984 -1.134047,0.34829 -2.603563,0.95942 -4.994141,2.49023 -2.748964,1.7603 -4.625663,3.80631 -6.607422,5.91797 -1.981759,2.11166 -4.0718,4.29382 -7.287109,6.41406 -1.584794,1.04505 -2.698838,1.36451 -3.419922,1.32618 -0.721084,-0.0383 -1.107638,-0.37622 -1.402344,-0.88282 -0.589412,-1.01319 -0.517578,-2.67382 -0.517578,-2.67382 a 0.45762862,0.45762862 0 0 0 -0.595703,-0.4668 c 0,0 -1.1922722,0.35892 -2.0878908,1.20117 -0.4478092,0.42113 -0.8394639,0.99155 -0.9003906,1.70703 -0.060927,0.71549 0.221774,1.51815 0.9355469,2.35938 1.4046085,1.65544 3.2134955,2.34881 5.0976565,2.27929 1.884161,-0.0695 3.8419,-0.86493 5.708984,-2.10156 3.748509,-2.48277 5.809102,-6.1214 13.308594,-10.71484 3.702651,-2.26788 6.881785,-2.71765 9.136719,-2.61524 2.033793,0.0924 3.13976,0.57443 3.365234,0.67774 0.145439,0.39381 0.151957,1.06425 -0.08789,1.94336 -0.261394,0.95808 -0.761645,2.10648 -1.414062,3.29297 -1.304835,2.37297 -3.226255,4.90416 -5.033203,6.50586 -1.857343,1.64636 -6.515268,4.26203 -9.900391,7.31445 -1.692561,1.52621 -3.09126,3.17302 -3.658203,4.96094 -0.566943,1.78791 -0.21685,3.72095 1.46875,5.51562 0.926018,0.98594 1.914365,1.38886 2.830078,1.34766 0.915714,-0.0412 1.711497,-0.49329 2.361328,-1.03711 1.299663,-1.08764 2.09375,-2.61524 2.09375,-2.61524 a 0.45762862,0.45762862 0 0 0 -0.732422,-0.53125 c -0.970415,1.00074 -2.020385,1.17375 -2.728515,0.89453 -0.70813,-0.27921 -1.173244,-0.98322 -0.9375,-2.1914 0.09857,-0.50518 0.62264,-1.28929 1.441406,-2.1211 0.818766,-0.8318 1.911116,-1.73044 3.078125,-2.60351 2.334018,-1.74614 4.960583,-3.39169 6.376953,-4.33594 1.506033,-1.00402 3.497671,-3.16886 5.166016,-5.10742 1.303391,-1.5145 1.916521,-2.31851 2.330078,-2.8457 0.342571,1.4273 1.247564,2.90146 2.248047,4.1914 0.626752,0.80809 1.287435,1.53692 1.873047,2.10743 0.585611,0.5705 1.066001,0.97525 1.46289,1.18164 0.559993,0.29119 2.199809,1.23114 3.513672,2.54492 1.313863,1.31378 2.264085,2.92275 1.738281,4.68945 -0.124829,0.41943 -0.297185,0.63797 -0.511718,0.77734 -0.214534,0.13938 -0.503948,0.20745 -0.892579,0.20313 -0.77726,-0.009 -1.884782,-0.33523 -3.097656,-0.68359 -1.212874,-0.34837 -2.541168,-0.71245 -3.867187,-0.73243 -1.326019,-0.02 -2.67041,0.32969 -3.769531,1.39649 -2.122124,2.05971 -2.0471,4.26463 -1.382813,5.82031 0.664287,1.55569 1.853516,2.55859 1.853516,2.55859 a 0.45762862,0.45762862 0 0 0 0.646484,-0.64257 c 0,0 -0.183242,-0.20416 -0.232422,-0.66016 -0.04918,-0.456 0.04596,-1.14693 0.835938,-2.0918 0.728091,-0.87085 1.808407,-1.05899 2.976562,-0.96093 1.168156,0.0981 2.35202,0.50022 3.117188,0.73828 0.797326,0.24806 3.039638,0.8201 5.394531,0.61914 1.177446,-0.10048 2.386823,-0.3969 3.439453,-1.05469 1.05263,-0.65779 1.935511,-1.68629 2.425781,-3.16602 1.538902,-4.64469 -0.896583,-8.43421 -1.972656,-9.82031 0.815529,0.0901 1.780124,0.0651 3.099609,-0.30469 2.282743,-0.63986 3.549599,-1.66658 4.529297,-2.50781 0.979698,-0.84123 1.623226,-1.44961 2.869141,-1.55469 0.576796,-0.0486 0.774774,0.0968 0.933594,0.34571 0.158819,0.24893 0.231755,0.69205 0.210937,1.17969 -0.04164,0.97527 -0.412109,2.04101 -0.412109,2.04101 a 0.45762862,0.45762862 0 0 0 0.625,0.56836 c 2.725419,-1.266 3.871177,-3.47055 3.792969,-5.44727 -0.07821,-1.97672 -1.374761,-3.74845 -3.34375,-4.07031 -1.412244,-0.23084 -3.075384,0.0342 -4.621094,0.42969 1.998169,-1.22445 4.002795,-2.5189 5.685547,-3.75195 1.912333,-1.40128 3.384877,-2.16509 4.515625,-2.39649 1.130747,-0.23139 1.911122,0.006 2.695312,0.69922 0.291212,0.25761 0.314791,0.52779 0.167969,1.00195 -0.146822,0.47417 -0.515315,1.06219 -0.949219,1.60743 -0.867808,1.09047 -1.964844,2.01953 -1.964844,2.01953 a 0.45762862,0.45762862 0 0 0 0.359375,0.80273 c 3.989782,-0.56996 6.456203,-3.43991 7.125,-6.24023 0.334399,-1.40016 0.22975,-2.80225 -0.40039,-3.90235 -0.63014,-1.10009 -1.812161,-1.85381 -3.416016,-1.91797 -6.189789,-0.24758 -12.961142,5.10457 -15.701172,7.23047 -2.672505,2.0735 -5.016207,2.71274 -7.734375,3.10938 -1.301255,0.18989 -2.129092,-0.0106 -2.68164,-0.40039 -0.552548,-0.38979 -0.877196,-1.00688 -1.056641,-1.80078 -0.163339,-0.72266 0.04631,-1.19925 0.421875,-1.61524 0.375562,-0.41599 0.942048,-0.72635 1.400391,-0.90429 0.215706,-0.0837 0.313453,-0.10221 0.33789,-0.10743 0.08163,0.0782 0.344063,0.36597 0.97461,0.58789 a 0.45762862,0.45762862 0 0 0 0.472656,-0.10351 c 0,0 2.854951,-2.78218 5.089844,-4.38086 2.214358,-1.584 4.470226,-2.18747 6.464843,-3.15039 0.828708,-0.40006 3.15458,-0.92847 5.390625,-1.3457 2.236046,-0.41724 4.412834,-0.75379 5.226563,-0.91407 0.760073,-0.14971 1.41419,-0.22339 1.992187,-0.3789 0.577998,-0.15552 1.114459,-0.42642 1.449219,-0.95899 0.310716,-0.49432 0.348036,-0.90541 0.490234,-1.58398 0.142199,-0.67857 0.40069,-1.71322 1.144532,-3.59766 1.499077,-3.79765 2.914309,-6.95257 4.371094,-9.24414 0.722182,-1.13602 1.702536,-2.35272 2.447265,-3.33789 0.372365,-0.49259 0.686416,-0.92338 0.890625,-1.29297 0.102104,-0.18479 0.181132,-0.34961 0.216797,-0.54883 0.01783,-0.0996 0.02515,-0.21328 -0.01172,-0.34375 -0.03687,-0.13046 -0.133433,-0.27055 -0.253906,-0.34961 -0.288394,-0.18925 -0.529695,-0.29376 -0.779297,-0.33203 -0.249602,-0.0383 -0.471291,-0.0355 -0.9375,-0.0918 -0.409181,-0.0494 -0.948593,0.0353 -1.746094,0.15234 -0.7975,0.11706 -1.782417,0.2859 -2.804687,0.46484 -2.04454,0.3579 -4.250909,0.75909 -5.291016,0.8711 -2.148146,0.23134 -5.388879,0.41406 -12.814453,0.41406 h -1.101562 a 0.45762862,0.45762862 0 0 0 -0.414063,0.26367 c 0.02797,-0.0602 0.0027,-0.009 -0.03906,0.043 -0.04176,0.0515 -0.104247,0.12552 -0.183594,0.21289 -0.158695,0.17474 -0.382567,0.40855 -0.646484,0.67774 -0.527836,0.53836 -1.22126,1.22206 -1.925782,1.91015 -1.409043,1.37618 -2.833121,2.73763 -3.148437,3.0625 -0.4779,0.49238 -4.600137,4.34003 -6.173828,5.60547 -1.550856,1.24708 -3.779177,2.22986 -5.072266,2.27344 -0.689823,0.0233 -1.156489,-0.0813 -1.443359,-0.18164 -0.286871,-0.10029 -0.359375,-0.16797 -0.359375,-0.16797 a 0.45762862,0.45762862 0 0 0 -0.03516,-0.0254 c 0,0 -0.365938,-0.28121 -0.880859,-0.28125 -0.257461,-2e-5 -0.583024,0.10746 -0.800781,0.36914 -0.217757,0.26168 -0.32375,0.61932 -0.347656,1.08789 -0.0382,0.74873 -0.214374,1.08709 -0.435547,1.28906 -0.221174,0.20197 -0.566619,0.30931 -1.050782,0.38867 -0.270102,0.0443 -0.625386,-0.15165 -0.941406,-0.57031 -0.316019,-0.41866 -0.535878,-1.01545 -0.548828,-1.44922 -0.01266,-0.42394 0.184148,-1.19399 0.570313,-2.04297 0.386164,-0.84898 0.950278,-1.79146 1.621093,-2.65625 0.582443,-0.75086 1.955103,-1.50309 3.314453,-2.07031 1.359351,-0.56722 2.662648,-0.96249 3.285157,-1.24023 0.498115,-0.22224 1.965606,-0.76967 3.595703,-1.72461 1.630096,-0.95494 3.457862,-2.33163 4.773437,-4.28321 a 0.45762862,0.45762862 0 0 0 0.01953,-0.0293 c 1.335937,-2.34389 0.780343,-4.05814 0.166016,-4.89453 -0.648405,-0.8828 -1.980685,-1.51729 -3.693359,-1.375 z" />
    </g>
    <g
       inkscape:groupmode="layer"
       id="layer3"
       inkscape:label="sepia_details"
       style="display:none"
       sodipodi:insensitive="true">
      <g
         id="g881"
         transform="translate(-32.910561,181.27565)">
        <g
           style="stroke-width:0.5;stroke-miterlimit:4;stroke-dasharray:none"
           id="g860">
          <path
             style="fill:none;stroke:#000000;stroke-width:0.5;stroke-linecap:butt;stroke-linejoin:miter;stroke-miterlimit:4;stroke-dasharray:none;stroke-opacity:1"
             d="m 99.853482,75.077388 c 0,0 5.812818,-2.705965 9.287138,-2.138048 3.47433,0.56792 4.61017,6.247106 -0.56791,8.65241 0,0 1.57012,-4.409721 -1.20266,-4.175872 -2.77278,0.233849 -3.07344,2.839593 -7.48316,4.075652 -4.409723,1.236058 -5.278304,-0.968803 -5.278304,-0.968803"
             id="path3870"
             inkscape:connector-curvature="0" />
        </g>
      </g>
      <path
         style="fill:none;stroke:#000000;stroke-width:0.5;stroke-linecap:butt;stroke-linejoin:miter;stroke-miterlimit:4;stroke-dasharray:none;stroke-opacity:1"
         d="m 94.5705,217.935 c 0,0 -12.093334,8.81944 -13.897314,10.82386 0,0 -1.4365,-1.10243 -5.34511,0.60133 -3.90862,1.70376 -3.70818,2.33849 -3.70818,2.33849"
         id="path4692"
         inkscape:connector-curvature="0" />
      <path
         style="fill:none;stroke:#000000;stroke-width:0.5;stroke-linecap:butt;stroke-linejoin:miter;stroke-miterlimit:4;stroke-dasharray:none;stroke-opacity:1"
         d="m 35.707387,232.93474 c 0,0 -0.150331,-3.90862 1.737162,-6.31392 1.8875,-2.40531 2.92311,-5.34512 1.70376,-6.08007 -1.21936,-0.73496 -2.42201,-0.85188 -3.357403,-0.70155 0,0 1.536723,-2.30508 4.292803,-1.8875 2.75607,0.41759 4.443127,3.02334 2.73937,7.18251 -1.70376,4.15917 -2.58904,6.41414 -2.58904,6.41414"
         id="path4695"
         inkscape:connector-curvature="0" />
      <path
         style="fill:none;stroke:#000000;stroke-width:0.26458332px;stroke-linecap:butt;stroke-linejoin:miter;stroke-opacity:1"
         d="m 51.869896,234.94226 c 0,0 1.86616,0.23623 1.88978,2.52759"
         id="path835"
         inkscape:connector-curvature="0" />
      <path
         style="fill:none;stroke:#000000;stroke-width:0.26458332px;stroke-linecap:butt;stroke-linejoin:miter;stroke-opacity:1"
         d="m 57.751846,242.83212 c 0,0 1.55908,-0.11811 2.14963,2.36223"
         id="path837"
         inkscape:connector-curvature="0" />
      <path
         style="fill:none;stroke:#000000;stroke-width:0.26458332px;stroke-linecap:butt;stroke-linejoin:miter;stroke-opacity:1"
         d="m 58.129806,243.39905 c 0,0 -1.85435,0.56694 -1.55907,2.18507 0.29528,1.61812 2.89373,0.0354 2.46853,-0.69686"
         id="path839"
         inkscape:connector-curvature="0" />
      <path
         style="fill:#000000;fill-opacity:1;stroke:#000000;stroke-width:0.26458332px;stroke-linecap:butt;stroke-linejoin:miter;stroke-opacity:1"
         d="m 57.881776,244.63922 c 0,0 -1.00395,-0.56693 -1.1575,0.18898 -0.15354,0.75592 -0.0472,1.38191 0.50788,1.42915 0.55513,0.0472 1.20474,-1.14568 0.64962,-1.61813 z"
         id="path841"
         inkscape:connector-curvature="0" />
      <path
         style="fill:none;stroke:#000000;stroke-width:0.26458332px;stroke-linecap:butt;stroke-linejoin:miter;stroke-opacity:1"
         d="m 52.507696,235.69818 c 0,0 -0.53111,-0.74232 -1.49156,0.90297 -0.96045,1.6453 0.86023,1.50332 1.29452,1.11914 0.43429,-0.38418 1.1943,-0.76836 0.99386,-1.07738"
         id="path843"
         inkscape:connector-curvature="0" />
      <path
         style="fill:#000000;fill-opacity:1;stroke:#000000;stroke-width:0.26458332px;stroke-linecap:butt;stroke-linejoin:miter;stroke-opacity:1"
         d="m 52.252196,236.48423 c 0,0 -0.38418,-0.6932 -1.03562,-0.0167 -0.65143,0.67649 -0.61802,1.67035 0.54287,1.4532 1.16089,-0.21714 0.49275,-1.4365 0.49275,-1.4365 z"
         id="path845"
         inkscape:connector-curvature="0" />
    </g>
    <g
       inkscape:groupmode="layer"
       id="layer5"
       inkscape:label="sepia_tentacles"
       style="display:inline;opacity:1"
       sodipodi:insensitive="true">
      <path
         style="fill:none;stroke:#000000;stroke-width:0.5;stroke-linecap:butt;stroke-linejoin:miter;stroke-miterlimit:4;stroke-dasharray:none;stroke-opacity:1"
         d="M 43.956426,246.87153 C 8.003274,268.88752 6.207979,269.97415 6.207979,269.97415"
         id="path847"
         inkscape:connector-curvature="0" />
      <path
         style="fill:none;stroke:#000000;stroke-width:0.26458332px;stroke-linecap:butt;stroke-linejoin:miter;stroke-opacity:1"
         d="m 3.656768,268.13161 c 0,0 1.606317,0.28346 3.448857,3.40161"
         id="path849"
         inkscape:connector-curvature="0" />
      <path
         style="fill:none;stroke:#000000;stroke-width:0.26458332px;stroke-linecap:butt;stroke-linejoin:miter;stroke-opacity:1"
         d="m 4.743396,268.98201 c 0,0 -5.338641,3.96855 -4.063037,5.14966 1.275604,1.18112 5.574864,-1.41734 6.330778,-2.69294"
         id="path851"
         inkscape:connector-curvature="0" />
      <path
         style="fill:none;stroke:#000000;stroke-width:0.5;stroke-linecap:butt;stroke-linejoin:miter;stroke-miterlimit:4;stroke-dasharray:none;stroke-opacity:1"
         d="m 45.846206,249.75345 c 0,0 -9.637897,8.40954 -18.614375,14.97654 C 18.255354,271.297 12.586,274.55687 12.586,274.55687"
         id="path853"
         inkscape:connector-curvature="0" />
      <path
         style="fill:none;stroke:#000000;stroke-width:0.26458332px;stroke-linecap:butt;stroke-linejoin:miter;stroke-opacity:1"
         d="m 11.121418,272.52536 2.976412,4.25201"
         id="path855"
         inkscape:connector-curvature="0" />
      <path
         style="fill:none;stroke:#000000;stroke-width:0.26458332px;stroke-linecap:butt;stroke-linejoin:miter;stroke-opacity:1"
         d="m 11.357641,273.70647 c 0,0 -5.055174,2.78743 -3.732324,4.44099 0,0 1.322849,2.6457 5.52762,-2.07876"
         id="path857"
         inkscape:connector-curvature="0" />
    </g>
  </g>
  <g
     inkscape:groupmode="layer"
     id="layer8"
     inkscape:label="tentaclepads">
    <path
       style="fill:none;stroke:#000000;stroke-width:0.26458332px;stroke-linecap:butt;stroke-linejoin:miter;stroke-opacity:1"
       d="m 46.459827,51.018452 c 0,0 0.02098,1.474113 -0.130038,2.223149 -0.151014,0.749036 -0.785064,2.223149 -0.785064,2.223149 l 4.606846,-2.94798 0.258206,-4.063547 z"
       id="path1828-2-0"
       inkscape:connector-curvature="0"
       sodipodi:nodetypes="czcccc" />
    <path
       style="fill:none;stroke:#000000;stroke-width:0.26458332px;stroke-linecap:butt;stroke-linejoin:miter;stroke-opacity:1"
       d="m 41.95492,49.796635 c 0,0 1.444695,-0.0479 2.145003,0.05338 0.700309,0.101279 2.028036,0.544648 2.028036,0.544648 l 3.861572,-2.195711 -4.072963,-0.523063 z"
       id="path1828-9"
       inkscape:connector-curvature="0"
       sodipodi:nodetypes="czcccc" />
  </g>
</svg>
